#!OML:ASF G:\JayActor3\Patient Classification 1\Patient 1\Session 6\male.ASF
:FULLY-SPECIFIED
:DEGREES
451
root 26.7228 15.8994 -11.5964 171.726 -43.5665 -174.907
lowerback 2.85492 3.74952 4.10031
upperback 7.03599 4.74918 -4.537
thorax 6.53301 2.5787 -6.95715
lowerneck 13.4 10.9422 7.02742
upperneck -7.74585 15.4836 -3.85131
head -3.6123 7.64976 -3.21206
rclavicle 9.93923e-015 1.74931e-014
rhumerus -28.2326 9.67452 -92.6086
rradius 46.2922
rwrist -2.91858
rhand -20.7564 -11.9347
rfingers 7.12502
rthumb 5.60959 -41.8405
lclavicle 9.93923e-015 1.74931e-014
lhumerus -14.985 2.50096 80.1829
lradius 28.414
lwrist 25.2483
lhand -17.4221 6.49093
lfingers 7.12502
lthumb 8.82803 36.2863
rfemur -8.72129 -11.2824 20.4412
rtibia 73.7642
rfoot -2.80465 -8.07448
rtoes -3.05432
lfemur -12.0207 9.59918 -16.8359
ltibia 33.0389
lfoot -18.2423 10.2306
ltoes 2.30428
452
root 26.6477 15.8832 -11.667 171.54 -43.6213 -175.166
lowerback 3.27534 3.69403 3.81575
upperback 7.31922 4.64927 -4.59805
thorax 6.5621 2.50545 -6.8871
lowerneck 13.6669 10.8585 6.93296
upperneck -7.77056 15.3892 -3.66259
head -3.69008 7.59022 -3.16017
rclavicle -5.32743e-014 6.83819e-014
rhumerus -28.2554 8.68247 -92.26
rradius 46.015
rwrist -2.81234
rhand -21.1973 -11.8031
rfingers 7.12502
rthumb 5.18381 -41.7197
lclavicle -5.32743e-014 6.83819e-014
lhumerus -13.8036 1.55509 80.3634
lradius 29.4565
lwrist 25.4966
lhand -17.2308 6.49892
lfingers 7.12502
lthumb 9.01267 36.2864
rfemur -10.1247 -11.7781 19.9396
rtibia 75.9799
rfoot -3.55172 -7.18495
rtoes -4.41985
lfemur -11.2081 9.59564 -16.9514
ltibia 33.0483
lfoot -18.5446 10.2898
ltoes 2.50341
453
root 26.5729 15.8681 -11.7371 171.422 -43.6617 -175.488
lowerback 3.69352 3.64104 3.47662
upperback 7.59321 4.54908 -4.64885
thorax 6.57707 2.42657 -6.77425
lowerneck 13.9147 10.7698 6.83745
upperneck -7.75602 15.2816 -3.51413
head -3.74991 7.52789 -3.11556
rclavicle -6.75868e-015 -1.74931e-014
rhumerus -28.2736 7.59944 -91.8767
rradius 45.6899
rwrist -2.69085
rhand -21.6456 -11.6285
rfingers 7.12502
rthumb 4.75097 -41.5552
lclavicle -6.75868e-015 -1.74931e-014
lhumerus -12.7151 0.635267 80.4965
lradius 30.6314
lwrist 25.9839
lhand -17.2821 6.32847
lfingers 7.12502
lthumb 8.96309 36.1181
rfemur -11.5811 -12.2503 19.4342
rtibia 78.068
rfoot -4.33165 -6.28676
rtoes -5.85379
lfemur -10.3754 9.57213 -17.1214
ltibia 32.9895
lfoot -18.8601 10.4132
ltoes 2.52083
454
root 26.4986 15.855 -11.8065 171.399 -43.6871 -175.879
lowerback 4.09101 3.59012 3.08012
upperback 7.84801 4.44866 -4.69271
thorax 6.57806 2.34225 -6.61967
lowerneck 14.1328 10.6786 6.74981
upperneck -7.7047 15.1637 -3.41959
head -3.78897 7.46516 -3.08303
rclavicle -3.69739e-014 2.22639e-014
rhumerus -28.2957 6.4475 -91.4632
rradius 45.3204
rwrist -2.56982
rhand -22.0657 -11.4232
rfingers 7.12502
rthumb 4.34534 -41.3586
lclavicle -3.69739e-014 2.22639e-014
lhumerus -11.7357 -0.242604 80.5795
lradius 31.9264
lwrist 26.6277
lhand -17.5629 5.94467
lfingers 7.12502
lthumb 8.69215 35.7457
rfemur -13.1164 -12.6934 18.9366
rtibia 80.0127
rfoot -5.1353 -5.42598
rtoes -7.26546
lfemur -9.55241 9.50907 -17.3586
ltibia 32.8591
lfoot -19.1404 10.6016
ltoes 2.44626
455
root 26.4244 15.8446 -11.8751 171.481 -43.7166 -176.329
lowerback 4.45003 3.53495 2.63676
upperback 8.07929 4.34054 -4.73258
thorax 6.57113 2.2501 -6.4319
lowerneck 14.312 10.5868 6.68003
upperneck -7.62987 15.0392 -3.38358
head -3.80869 7.4037 -3.06558
rclavicle -5.1684e-015 0
rhumerus -28.3258 5.24617 -91.0254
rradius 44.912
rwrist -2.46022
rhand -22.461 -11.2256
rfingers 7.12502
rthumb 3.96358 -41.1685
lclavicle -5.1684e-015 0
lhumerus -10.8707 -1.0782 80.611
lradius 33.329
lwrist 27.3388
lhand -17.9504 5.45121
lfingers 7.12502
lthumb 8.3182 35.2674
rfemur -14.7429 -13.1139 18.4668
rtibia 81.7948
rfoot -5.97589 -4.65327
rtoes -8.56513
lfemur -8.77077 9.38627 -17.6665
ltibia 32.6632
lfoot -19.3571 10.8551
ltoes 2.30122
456
root 26.3501 15.8368 -11.9431 171.669 -43.714 -176.811
lowerback 4.75335 3.48579 2.17364
upperback 8.27858 4.24036 -4.76808
thorax 6.56196 2.16041 -6.22474
lowerneck 14.4532 10.4957 6.63882
upperneck -7.55125 14.9125 -3.40951
head -3.8142 7.34519 -3.06701
rclavicle -4.69132e-014 6.20208e-014
rhumerus -28.3668 4.00273 -90.5716
rradius 44.4553
rwrist -2.3563
rhand -22.8459 -11.0784
rfingers 7.12502
rthumb 3.59194 -41.0279
lclavicle -4.69132e-014 6.20208e-014
lhumerus -10.1184 -1.85119 80.5881
lradius 34.8239
lwrist 28.016
lhand -18.3576 5.01784
lfingers 7.12502
lthumb 7.92524 34.8493
rfemur -16.479 -13.466 18.0701
rtibia 83.3971
rfoot -6.85909 -4.02119
rtoes -9.7337
lfemur -8.05151 9.22679 -18.022
ltibia 32.4143
lfoot -19.5296 11.1609
ltoes 2.14777
457
root 26.275 15.8317 -12.0109 171.94 -43.6743 -177.288
lowerback 4.98623 3.44133 1.72816
upperback 8.4441 4.14882 -4.79755
thorax 6.56026 2.07681 -6.01718
lowerneck 14.5516 10.4083 6.62732
upperneck -7.47484 14.7892 -3.48434
head -3.80744 7.29127 -3.08411
rclavicle 4.49253e-014 -2.06736e-014
rhumerus -28.4306 2.74272 -90.1111
rradius 43.9575
rwrist -2.26474
rhand -23.2112 -11.0408
rfingers 7.12502
rthumb 3.2391 -40.9959
lclavicle 4.49253e-014 -2.06736e-014
lhumerus -9.47705 -2.56215 80.5152
lradius 36.3808
lwrist 28.5829
lhand -18.567 4.75982
lfingers 7.12502
lthumb 7.72311 34.5988
rfemur -18.3193 -13.7392 17.7839
rtibia 84.7942
rfoot -7.79023 -3.55976
rtoes -10.816
lfemur -7.40379 9.04634 -18.3955
ltibia 32.1237
lfoot -19.6762 11.4837
ltoes 2.07806
458
root 26.1981 15.8289 -12.0791 172.257 -43.5817 -177.721
lowerback 5.14639 3.40439 1.33878
upperback 8.58046 4.07166 -4.81741
thorax 6.57572 2.00517 -5.82719
lowerneck 14.5986 10.3275 6.63817
upperneck -7.41023 14.6736 -3.59095
head -3.79186 7.24288 -3.11118
rclavicle 6.36111e-014 -3.18055e-014
rhumerus -28.5227 1.49265 -89.6517
rradius 43.4215
rwrist -2.18828
rhand -23.5768 -11.1246
rfingers 7.12502
rthumb 2.88611 -41.0848
lclavicle 6.36111e-014 -3.18055e-014
lhumerus -8.9274 -3.19606 80.3993
lradius 37.9571
lwrist 28.9855
lhand -18.467 4.74018
lfingers 7.12502
lthumb 7.81959 34.5756
rfemur -20.2366 -13.9086 17.6402
rtibia 85.9591
rfoot -8.75655 -3.2785
rtoes -11.7778
lfemur -6.81054 8.87581 -18.7516
ltibia 31.7975
lfoot -19.8301 11.8147
ltoes 2.06956
459
root 26.1187 15.8287 -12.1485 172.587 -43.443 -178.077
lowerback 5.23374 3.36957 1.03407
upperback 8.6932 4.00335 -4.82222
thorax 6.6151 1.9449 -5.66532
lowerneck 14.5966 10.2569 6.66209
upperneck -7.36772 14.5706 -3.71687
head -3.77247 7.20146 -3.14426
rclavicle 1.15295e-014 7.15625e-014
rhumerus -28.654 0.298749 -89.204
rradius 42.8606
rwrist -2.15586
rhand -23.9438 -11.2823
rfingers 7.12502
rthumb 2.5316 -41.247
lclavicle 1.15295e-014 7.15625e-014
lhumerus -8.45958 -3.74633 80.2495
lradius 39.5346
lwrist 29.2434
lhand -18.3052 4.80962
lfingers 7.12502
lthumb 7.97582 34.6391
rfemur -22.1913 -13.9732 17.6545
rtibia 86.8644
rfoot -9.74382 -3.17481
rtoes -12.5779
lfemur -6.24979 8.72977 -19.0594
ltibia 31.4315
lfoot -20.0155 12.134
ltoes 2.13296
460
root 26.0361 15.8308 -12.2194 172.896 -43.2842 -178.343
lowerback 5.26588 3.32768 0.827658
upperback 8.79174 3.93159 -4.8088
thorax 6.67753 1.89061 -5.53699
lowerneck 14.5454 10.1961 6.68745
upperneck -7.35045 14.4785 -3.85065
head -3.752 7.16564 -3.17855
rclavicle -5.60573e-014 -1.04958e-013
rhumerus -28.831 -0.799627 -88.7686
rradius 42.2875
rwrist -2.18098
rhand -24.3121 -11.4766
rfingers 7.12502
rthumb 2.17593 -41.4452
lclavicle -5.60573e-014 -1.04958e-013
lhumerus -8.05732 -4.20978 80.0802
lradius 41.063
lwrist 29.3726
lhand -18.183 4.78148
lfingers 7.12502
lthumb 8.09368 34.6065
rfemur -24.129 -13.9522 17.8107
rtibia 87.4885
rfoot -10.7346 -3.23289
rtoes -13.2237
lfemur -5.68814 8.60212 -19.3072
ltibia 31.015
lfoot -20.2291 12.4322
ltoes 2.22134
461
root 25.9505 15.8352 -12.2919 173.183 -43.1231 -178.533
lowerback 5.26131 3.27239 0.69659
upperback 8.87693 3.84694 -4.77325
thorax 6.74973 1.83569 -5.426
lowerneck 14.4506 10.1464 6.70102
upperneck -7.35948 14.3974 -3.99045
head -3.73272 7.13559 -3.2121
rclavicle -1.98785e-014 7.15625e-014
rhumerus -29.0603 -1.75437 -88.3442
rradius 41.7114
rwrist -2.27738
rhand -24.6662 -11.6469
rfingers 7.12502
rthumb 1.83399 -41.6187
lclavicle -1.98785e-014 7.15625e-014
lhumerus -7.72253 -4.57588 79.9101
lradius 42.5254
lwrist 29.4354
lhand -18.175 4.63855
lfingers 7.12502
lthumb 8.10146 34.4633
rfemur -26.0172 -13.859 18.0767
rtibia 87.8212
rfoot -11.6951 -3.42579
rtoes -13.6833
lfemur -5.10546 8.49531 -19.5016
ltibia 30.5325
lfoot -20.4752 12.702
ltoes 2.3384
462
root 25.8623 15.842 -12.3661 173.446 -42.9753 -178.667
lowerback 5.24573 3.1992 0.618477
upperback 8.94906 3.74168 -4.71312
thorax 6.81436 1.7743 -5.31838
lowerneck 14.3279 10.1111 6.69846
upperneck -7.39357 14.331 -4.138
head -3.71656 7.1134 -3.24585
rclavicle -3.49861e-014 -7.63333e-014
rhumerus -29.346 -2.54258 -87.925
rradius 41.1358
rwrist -2.45366
rhand -24.9617 -11.7562
rfingers 7.12502
rthumb 1.54853 -41.7303
lclavicle -3.49861e-014 -7.63333e-014
lhumerus -7.46228 -4.83083 79.7544
lradius 43.9117
lwrist 29.4733
lhand -18.2817 4.39974
lfingers 7.12502
lthumb 7.99845 34.2284
rfemur -27.822 -13.7092 18.4159
rtibia 87.859
rfoot -12.6187 -3.71883
rtoes -13.961
lfemur -4.48126 8.39922 -19.6539
ltibia 29.9712
lfoot -20.718 12.9432
ltoes 2.43721
463
root 25.7714 15.8512 -12.442 173.696 -42.8759 -178.768
lowerback 5.2313 3.09927 0.571234
upperback 9.00497 3.60324 -4.63095
thorax 6.85816 1.69866 -5.20504
lowerneck 14.1888 10.0803 6.69187
upperneck -7.43944 14.2677 -4.30383
head -3.70021 7.09394 -3.28409
rclavicle -5.48646e-014 -5.88403e-014
rhumerus -29.6955 -3.16353 -87.502
rradius 40.5622
rwrist -2.68472
rhand -25.1699 -11.7956
rfingers 7.12502
rthumb 1.34749 -41.7711
lclavicle -5.48646e-014 -5.88403e-014
lhumerus -7.29089 -4.98268 79.6228
lradius 45.2208
lwrist 29.5351
lhand -18.496 4.07629
lfingers 7.12502
lthumb 7.79157 33.9127
rfemur -29.5183 -13.5369 18.784
rtibia 87.6024
rfoot -13.5026 -4.06888
rtoes -14.0779
lfemur -3.81273 8.28687 -19.7851
ltibia 29.3236
lfoot -20.9346 13.1435
ltoes 2.5378
464
root 25.6787 15.8623 -12.5197 173.951 -42.8119 -178.866
lowerback 5.23205 2.98295 0.527058
upperback 9.04322 3.44401 -4.53131
thorax 6.87131 1.61274 -5.07555
lowerneck 14.0279 10.0523 6.68508
upperneck -7.48787 14.2053 -4.48874
head -3.6798 7.07618 -3.32676
rclavicle -2.46493e-014 7.4743e-014
rhumerus -30.0939 -3.64072 -87.0717
rradius 39.976
rwrist -2.92372
rhand -25.2871 -11.8076
rfingers 7.12502
rthumb 1.23425 -41.7837
lclavicle -2.46493e-014 7.4743e-014
lhumerus -7.2047 -5.04556 79.5178
lradius 46.458
lwrist 29.6374
lhand -18.7278 3.76975
lfingers 7.12502
lthumb 7.56788 33.6144
rfemur -31.1035 -13.3226 19.1536
rtibia 87.0604
rfoot -14.337 -4.46058
rtoes -14.1377
lfemur -3.09754 8.17359 -19.9118
ltibia 28.5857
lfoot -21.1231 13.3052
ltoes 2.64518
